# xmcd
#
# Track frame offsets:
# 150
# 16038
# 35063
# 54951
# 72567
# 89814
# 110992
# 129228
# 146764
# 162282
# 172194
# 190158
# 203732
# 222626
# 239815
# 256172
# 276932
#
# Disc length: 3924 seconds
#
#
# Revision: 0
# Processed by: cddbd v1.5.2PL0 Copyright (c) Steve Scherf et al.
# Submitted via: FreeRIP 2.944 
#
DISCID=100f5211
DTITLE=Hans Knudsens Jump Band - Rockin'In Rhythm
DYEAR=1997
DGENRE=blues
TTITLE0=Trumpet Creeper
TTITLE1=Esquire Bounce
TTITLE2=Drifting Blues
TTITLE3=Perdido Street Stomp
TTITLE4=I May Be Wrong
TTITLE5=When your smiling
TTITLE6=Foolin' myself
TTITLE7=Excactly like you
TTITLE8=St. James Infirmary
TTITLE9=Pærevælling
TTITLE10=Lady be good
TTITLE11=Ja-da
TTITLE12=Just squeeze me
TTITLE13=Ain't miss behavin
TTITLE14=Oh red
TTITLE15=I can't give you anything but love
TTITLE16=Kan det betale sig
EXTD=
EXTT0=
EXTT1=
EXTT2=
EXTT3=
EXTT4=
EXTT5=
EXTT6=
EXTT7=
EXTT8=
EXTT9=
EXTT10=
EXTT11=
EXTT12=
EXTT13=
EXTT14=
EXTT15=
EXTT16=
PLAYORDER=
